<?xml version="1.0" standalone="no"?>
<!DOCTYPE svg PUBLIC "-//W3C//DTD SVG 20010904//EN"
 "http://www.w3.org/TR/2001/REC-SVG-20010904/DTD/svg10.dtd">
<svg version="1.0" xmlns="http://www.w3.org/2000/svg"
 width="500.000000pt" height="500.000000pt" viewBox="0 0 500.000000 500.000000"
 preserveAspectRatio="xMidYMid meet">

<g transform="translate(0.000000,500.000000) scale(0.100000,-0.100000)"
fill="#000000" stroke="none">
<path d="M2315 4348 c-582 -65 -1099 -415 -1399 -946 l-35 -62 300 -232 c164
-128 303 -234 308 -236 5 -2 12 10 16 25 11 46 82 182 131 250 154 215 389
378 649 450 91 25 115 28 270 27 156 0 177 -2 260 -28 127 -38 242 -96 341
-172 l85 -65 67 60 c37 33 157 150 267 261 l200 201 -35 30 c-131 111 -242
186 -381 255 -310 155 -694 222 -1044 182z"/>
<path d="M2540 2480 l0 -360 500 0 c275 0 500 -3 500 -6 0 -26 -38 -142 -66
-202 -56 -123 -158 -247 -269 -330 l-30 -22 25 -19 c14 -11 147 -114 295 -229
l270 -210 58 56 c235 229 416 618 473 1018 20 142 21 434 2 569 l-13 90 -872
3 -873 2 0 -360z"/>
</g>
</svg>
