<?xml version="1.0" standalone="no"?>
<!DOCTYPE svg PUBLIC "-//W3C//DTD SVG 20010904//EN"
 "http://www.w3.org/TR/2001/REC-SVG-20010904/DTD/svg10.dtd">
<svg version="1.0" xmlns="http://www.w3.org/2000/svg"
 width="1880.000000pt" height="1880.000000pt" viewBox="0 0 1880.000000 1880.000000"
 preserveAspectRatio="xMidYMid meet">

<g transform="translate(0.000000,1880.000000) scale(0.100000,-0.100000)"
fill="#000000" stroke="none">
<path d="M15118 15223 c-25 -3 -38 -9 -38 -19 0 -11 -14 -14 -60 -14 -44 0
-60 -4 -60 -14 0 -16 -30 -26 -77 -26 -23 0 -33 -5 -33 -15 0 -9 -9 -15 -24
-15 -45 0 -86 -13 -86 -26 0 -9 -12 -14 -32 -14 -48 0 -78 -10 -78 -26 0 -8
-9 -14 -20 -14 -13 0 -20 7 -20 20 0 13 -7 20 -20 20 -18 0 -20 7 -20 55 0 48
-2 55 -20 55 -13 0 -20 -7 -20 -20 0 -16 -7 -20 -35 -20 -25 0 -35 -4 -35 -16
0 -9 -9 -18 -20 -21 -11 -3 -20 -12 -20 -19 0 -9 -12 -14 -35 -14 -28 0 -35
-4 -35 -20 0 -17 -7 -20 -40 -20 -33 0 -40 -3 -40 -20 0 -13 -7 -20 -20 -20
-11 0 -20 -7 -20 -15 0 -8 -14 -17 -35 -21 -20 -3 -35 -12 -35 -20 0 -8 -9
-14 -20 -14 -13 0 -20 -7 -20 -20 0 -17 -7 -20 -40 -20 -33 0 -40 -3 -40 -20
0 -16 -7 -20 -35 -20 -28 0 -35 -4 -35 -20 0 -13 -7 -20 -20 -20 -11 0 -20 -7
-20 -15 0 -8 -9 -15 -20 -15 -13 0 -20 -7 -20 -20 0 -16 -7 -20 -35 -20 -28 0
-35 -4 -35 -20 0 -16 -7 -20 -35 -20 -25 0 -35 -4 -35 -16 0 -9 -9 -18 -20
-21 -11 -3 -20 -11 -20 -18 0 -7 -16 -16 -35 -19 -21 -4 -35 -13 -35 -21 0 -9
-10 -15 -25 -15 -18 0 -25 -5 -25 -20 0 -13 -7 -20 -20 -20 -11 0 -20 -7 -20
-15 0 -8 -14 -17 -35 -21 -19 -3 -35 -12 -35 -19 0 -7 -9 -15 -20 -18 -11 -3
-20 -12 -20 -20 0 -9 -14 -17 -35 -21 -21 -4 -35 -13 -35 -21 0 -8 -9 -15 -20
-15 -13 0 -20 -7 -20 -20 0 -13 -7 -20 -20 -20 -11 0 -20 -6 -20 -14 0 -8 -15
-17 -35 -20 -21 -4 -35 -13 -35 -21 0 -8 -9 -15 -20 -15 -13 0 -20 -7 -20 -20
0 -16 -7 -20 -35 -20 -28 0 -35 -4 -35 -20 0 -13 -7 -20 -20 -20 -11 0 -20 -7
-20 -15 0 -8 -9 -15 -20 -15 -13 0 -20 -7 -20 -20 0 -13 -7 -20 -20 -20 -13 0
-20 -7 -20 -20 0 -16 -7 -20 -35 -20 -28 0 -35 -4 -35 -20 0 -13 -7 -20 -20
-20 -11 0 -20 -7 -20 -15 0 -8 -9 -15 -20 -15 -13 0 -20 -7 -20 -19 0 -14 -10
-21 -35 -25 -21 -4 -35 -13 -35 -21 0 -8 -9 -15 -20 -15 -13 0 -20 -7 -20 -20
0 -13 -7 -20 -20 -20 -11 0 -20 -7 -20 -15 0 -8 -7 -15 -16 -15 -9 0 -18 -9
-21 -19 -3 -12 -17 -21 -39 -26 -20 -3 -34 -12 -34 -20 0 -8 -9 -15 -20 -15
-13 0 -20 -7 -20 -20 0 -13 -7 -20 -20 -20 -11 0 -20 -6 -20 -14 0 -7 -9 -16
-20 -19 -11 -3 -20 -12 -20 -21 0 -9 -13 -18 -35 -22 -20 -3 -35 -12 -35 -20
0 -8 -9 -14 -20 -14 -13 0 -20 -7 -20 -20 0 -13 -7 -20 -20 -20 -13 0 -20 -7
-20 -20 0 -11 -7 -20 -15 -20 -8 0 -15 -7 -15 -15 0 -8 -9 -15 -20 -15 -13 0
-20 -7 -20 -20 0 -16 -7 -20 -35 -20 -28 0 -35 -4 -35 -20 0 -13 -7 -20 -20
-20 -13 0 -20 -7 -20 -20 0 -13 -7 -20 -20 -20 -11 0 -20 -6 -20 -14 0 -7 -9
-16 -20 -19 -11 -3 -20 -12 -20 -21 0 -9 -8 -16 -20 -16 -13 0 -20 -7 -20 -20
0 -16 -7 -20 -35 -20 -28 0 -35 -4 -35 -20 0 -11 -7 -20 -15 -20 -8 0 -15 -7
-15 -16 0 -9 -9 -18 -20 -21 -11 -3 -20 -12 -20 -20 0 -8 -9 -17 -20 -20 -11
-3 -20 -12 -20 -19 0 -8 -9 -14 -20 -14 -13 0 -20 -7 -20 -20 0 -13 -7 -20
-20 -20 -13 0 -20 -7 -20 -20 0 -13 -7 -20 -20 -20 -11 0 -20 -7 -20 -15 0 -8
-7 -15 -15 -15 -8 0 -15 -9 -15 -20 0 -13 -7 -20 -20 -20 -12 0 -20 -7 -20
-16 0 -9 -9 -18 -20 -21 -11 -3 -20 -11 -20 -18 0 -7 -9 -15 -20 -18 -11 -3
-20 -12 -20 -21 0 -9 -7 -16 -16 -16 -9 0 -18 -9 -21 -20 -3 -11 -12 -20 -20
-20 -8 0 -17 -9 -20 -20 -3 -11 -12 -20 -19 -20 -8 0 -14 -7 -14 -15 0 -8 -7
-15 -16 -15 -9 0 -18 -9 -21 -20 -3 -11 -14 -20 -24 -20 -12 0 -19 -7 -19 -19
0 -14 -10 -21 -35 -25 -21 -4 -35 -13 -35 -21 0 -8 -6 -15 -14 -15 -7 0 -16
-9 -19 -20 -3 -11 -12 -20 -20 -20 -8 0 -17 -9 -20 -20 -3 -11 -12 -20 -21
-20 -9 0 -16 -7 -16 -15 0 -8 -9 -15 -20 -15 -13 0 -20 -7 -20 -20 0 -11 -6
-20 -14 -20 -7 0 -16 -9 -19 -20 -3 -11 -12 -20 -20 -20 -8 0 -17 -9 -20 -20
-3 -11 -12 -20 -20 -20 -8 0 -17 -9 -20 -20 -3 -11 -12 -20 -20 -20 -9 0 -18
-13 -22 -30 -4 -16 -13 -30 -21 -30 -8 0 -14 -9 -14 -20 0 -12 -7 -20 -16 -20
-9 0 -18 -9 -21 -20 -3 -11 -12 -20 -20 -20 -8 0 -17 -9 -20 -20 -3 -11 -11
-20 -18 -20 -7 0 -15 -9 -18 -20 -3 -11 -12 -20 -21 -20 -9 0 -16 -7 -16 -15
0 -8 -7 -15 -16 -15 -9 0 -18 -9 -21 -20 -3 -11 -12 -20 -19 -20 -8 0 -14 -9
-14 -20 0 -13 -7 -20 -20 -20 -13 0 -20 -7 -20 -20 0 -13 -7 -20 -20 -20 -13
0 -20 -7 -20 -20 0 -13 -7 -20 -20 -20 -13 0 -20 -7 -20 -20 0 -11 -7 -20 -15
-20 -8 0 -15 -7 -15 -15 0 -8 -9 -15 -20 -15 -13 0 -20 -7 -20 -20 0 -13 -7
-20 -20 -20 -13 0 -20 -7 -20 -20 0 -11 -7 -20 -15 -20 -8 0 -17 -14 -21 -35
-4 -25 -11 -35 -25 -35 -12 0 -19 -7 -19 -20 0 -11 -6 -20 -14 -20 -7 0 -16
-9 -19 -20 -3 -11 -12 -20 -21 -20 -9 0 -16 -7 -16 -15 0 -8 -7 -15 -16 -15
-9 0 -18 -9 -21 -20 -3 -11 -12 -20 -19 -20 -8 0 -14 -9 -14 -20 0 -13 -7 -20
-19 -20 -14 0 -21 -10 -25 -35 -4 -21 -13 -35 -21 -35 -8 0 -15 -9 -15 -20 0
-13 -7 -20 -20 -20 -13 0 -20 -7 -20 -20 0 -13 -7 -20 -20 -20 -13 0 -20 -7
-20 -20 0 -11 -7 -20 -15 -20 -8 0 -15 -9 -15 -20 0 -13 -7 -20 -19 -20 -14 0
-21 -10 -25 -35 -4 -21 -13 -35 -21 -35 -8 0 -15 -9 -15 -20 0 -13 -7 -20 -20
-20 -13 0 -20 -7 -20 -20 0 -11 -7 -20 -15 -20 -8 0 -15 -7 -15 -15 0 -8 -9
-15 -20 -15 -13 0 -20 -7 -20 -20 0 -13 -7 -20 -20 -20 -16 0 -20 -7 -20 -34
0 -25 -5 -35 -20 -39 -11 -3 -20 -12 -20 -21 0 -9 -7 -16 -15 -16 -8 0 -15 -9
-15 -20 0 -13 -7 -20 -20 -20 -13 0 -20 -7 -20 -20 0 -13 -7 -20 -20 -20 -13
0 -20 -7 -20 -20 0 -11 -7 -20 -15 -20 -8 0 -17 -14 -21 -35 -4 -25 -11 -35
-25 -35 -12 0 -19 -7 -19 -20 0 -11 -7 -20 -15 -20 -8 0 -15 -7 -15 -16 0 -9
-9 -18 -20 -21 -11 -3 -20 -14 -20 -24 0 -12 -7 -19 -20 -19 -11 0 -20 -7 -20
-15 0 -8 -6 -15 -14 -15 -8 0 -17 -15 -20 -35 -4 -21 -13 -35 -21 -35 -8 0
-15 -9 -15 -20 0 -13 -7 -20 -20 -20 -13 0 -20 -7 -20 -20 0 -13 -7 -20 -20
-20 -13 0 -20 -7 -20 -20 0 -11 -7 -20 -15 -20 -8 0 -15 -9 -15 -20 0 -13 -7
-20 -19 -20 -14 0 -21 -10 -25 -35 -4 -21 -13 -35 -21 -35 -8 0 -15 -9 -15
-20 0 -13 -7 -20 -20 -20 -13 0 -20 -7 -20 -20 0 -13 -7 -20 -20 -20 -13 0
-20 -7 -20 -20 0 -11 -7 -20 -15 -20 -8 0 -15 -7 -15 -16 0 -9 -9 -18 -20 -21
-14 -4 -20 -14 -20 -33 0 -19 -6 -29 -20 -33 -11 -3 -20 -12 -20 -20 0 -8 -9
-17 -20 -20 -11 -3 -20 -12 -20 -21 0 -9 -7 -16 -15 -16 -8 0 -15 -9 -15 -20
0 -13 -7 -20 -19 -20 -14 0 -21 -10 -25 -35 -4 -21 -13 -35 -21 -35 -8 0 -15
-8 -15 -19 0 -10 -9 -21 -20 -24 -11 -3 -20 -12 -20 -21 0 -9 -7 -16 -15 -16
-8 0 -15 -9 -15 -20 0 -13 -7 -20 -19 -20 -14 0 -21 -10 -25 -35 -4 -21 -13
-35 -21 -35 -8 0 -15 -9 -15 -20 0 -13 -7 -20 -20 -20 -13 0 -20 -7 -20 -20 0
-11 -6 -20 -14 -20 -7 0 -16 -9 -19 -20 -3 -11 -12 -20 -20 -20 -9 0 -17 -14
-21 -35 -4 -21 -13 -35 -21 -35 -8 0 -15 -9 -15 -20 0 -13 -7 -20 -20 -20 -13
0 -20 -7 -20 -20 0 -11 -6 -20 -14 -20 -7 0 -16 -9 -19 -20 -3 -11 -12 -20
-21 -20 -12 0 -16 -10 -16 -35 0 -28 -4 -35 -20 -35 -13 0 -20 -7 -20 -20 0
-13 -7 -20 -20 -20 -13 0 -20 -7 -20 -20 0 -11 -7 -20 -15 -20 -8 0 -17 -14
-21 -35 -3 -20 -12 -35 -20 -35 -8 0 -14 -9 -14 -20 0 -13 -7 -20 -20 -20 -13
0 -20 -7 -20 -20 0 -11 -7 -20 -15 -20 -8 0 -17 -14 -21 -35 -4 -25 -11 -35
-25 -35 -12 0 -19 -7 -19 -20 0 -11 -6 -20 -14 -20 -7 0 -16 -9 -19 -20 -3
-11 -12 -20 -21 -20 -12 0 -16 -10 -16 -35 0 -28 -4 -35 -20 -35 -13 0 -20 -7
-20 -20 0 -11 -6 -20 -14 -20 -7 0 -16 -9 -19 -20 -7 -27 -47 -27 -47 0 0 11
-7 20 -15 20 -8 0 -15 9 -15 20 0 13 -7 20 -20 20 -13 0 -20 7 -20 20 0 13 -7
20 -20 20 -11 0 -20 7 -20 15 0 8 -7 15 -15 15 -9 0 -15 9 -15 21 0 12 -8 23
-20 26 -14 4 -20 14 -20 33 0 19 -6 29 -20 33 -12 3 -20 14 -20 26 0 14 -6 21
-20 21 -16 0 -20 7 -20 35 0 28 -4 35 -20 35 -13 0 -20 7 -20 20 0 11 -6 20
-14 20 -7 0 -16 9 -19 20 -3 11 -12 20 -21 20 -12 0 -16 10 -16 35 0 28 -4 35
-20 35 -13 0 -20 7 -20 20 0 11 -6 20 -14 20 -7 0 -16 9 -19 20 -3 11 -12 20
-20 20 -9 0 -17 14 -21 35 -4 21 -13 35 -21 35 -8 0 -15 9 -15 20 0 13 -7 20
-20 20 -13 0 -20 7 -20 20 0 11 -6 20 -14 20 -7 0 -16 9 -19 20 -3 11 -12 20
-20 20 -9 0 -18 13 -22 30 -4 17 -13 30 -21 30 -8 0 -14 9 -14 20 0 12 -7 20
-16 20 -9 0 -18 9 -21 20 -3 11 -12 20 -20 20 -8 0 -17 9 -20 20 -3 11 -12 20
-19 20 -8 0 -14 9 -14 20 0 13 -7 20 -20 20 -13 0 -20 7 -20 20 0 13 -7 20
-20 20 -13 0 -20 7 -20 20 0 11 -7 20 -15 20 -8 0 -15 7 -15 15 0 8 -9 15 -20
15 -13 0 -20 7 -20 20 0 13 -7 20 -20 20 -13 0 -20 7 -20 20 0 13 -7 20 -20
20 -11 0 -20 7 -20 15 0 8 -9 15 -20 15 -26 0 -26 -30 0 -37 11 -3 20 -12 20
-19 0 -8 7 -14 16 -14 9 0 18 -9 21 -20 3 -11 12 -20 19 -20 8 0 14 -9 14 -20
0 -13 7 -20 20 -20 11 0 20 -7 20 -15 0 -10 -11 -15 -35 -15 -24 0 -35 5 -35
15 0 8 -9 15 -20 15 -13 0 -20 7 -20 20 0 13 -7 20 -20 20 -13 0 -20 7 -20 20
0 13 -7 20 -20 20 -11 0 -20 7 -20 15 0 8 -7 15 -15 15 -8 0 -15 9 -15 20 0
13 -7 20 -20 20 -13 0 -20 7 -20 20 0 13 -7 20 -20 20 -13 0 -20 7 -20 20 0
13 -7 20 -20 20 -11 0 -20 7 -20 15 0 8 -7 15 -16 15 -9 0 -18 9 -21 20 -3 11
-12 20 -19 20 -8 0 -14 9 -14 20 0 13 -7 20 -20 20 -13 0 -20 7 -20 20 0 13
-7 20 -20 20 -11 0 -20 7 -20 15 0 8 -7 15 -15 15 -8 0 -15 9 -15 20 0 13 -7
20 -20 20 -13 0 -20 7 -20 20 0 13 -7 20 -20 20 -13 0 -20 7 -20 20 0 13 -7
20 -20 20 -13 0 -20 7 -20 20 0 11 -7 20 -15 20 -8 0 -15 7 -15 15 0 8 -9 15
-20 15 -13 0 -20 7 -20 20 0 13 -7 20 -20 20 -13 0 -20 7 -20 20 0 13 -7 20
-20 20 -13 0 -20 7 -20 20 0 16 -7 20 -35 20 -28 0 -35 4 -35 20 0 13 -7 20
-20 20 -11 0 -20 7 -20 15 0 8 -7 15 -16 15 -9 0 -18 9 -21 20 -3 11 -12 20
-19 20 -8 0 -14 9 -14 20 0 13 -7 20 -20 20 -11 0 -20 6 -20 14 0 8 -4 17 -9
20 -16 10 -71 -6 -71 -20 0 -8 -7 -14 -15 -14 -8 0 -15 -9 -15 -20 0 -16 7
-20 35 -20 28 0 35 -4 35 -20 0 -13 7 -20 20 -20 11 0 20 -7 20 -15 0 -8 7
-15 16 -15 9 0 18 -9 21 -20 3 -11 12 -20 19 -20 8 0 14 -9 14 -20 0 -13 7
-20 20 -20 11 0 20 -7 20 -15 0 -8 7 -15 16 -15 9 0 18 -9 21 -19 3 -12 17
-21 38 -25 21 -4 35 -14 38 -26 3 -11 12 -20 21 -20 9 0 16 -7 16 -15 0 -8 9
-15 20 -15 13 0 20 -7 20 -20 0 -11 6 -20 14 -20 7 0 16 -9 19 -20 3 -11 12
-20 21 -20 9 0 16 -7 16 -15 0 -8 9 -15 20 -15 13 0 20 -7 20 -20 0 -13 7 -20
20 -20 13 0 20 -7 20 -20 0 -13 7 -20 20 -20 13 0 20 -7 20 -20 0 -11 6 -20
14 -20 7 0 16 -9 19 -20 3 -11 12 -20 21 -20 9 0 16 -7 16 -15 0 -8 9 -15 20
-15 16 0 20 -7 20 -35 0 -25 -4 -35 -16 -35 -9 0 -18 -9 -21 -20 -4 -15 -14
-20 -39 -20 -27 0 -34 4 -34 20 0 13 -7 20 -20 20 -11 0 -20 7 -20 15 0 8 -7
15 -16 15 -9 0 -18 9 -21 20 -3 11 -12 20 -19 20 -8 0 -14 9 -14 20 0 13 -7
20 -19 20 -10 0 -21 9 -24 20 -3 11 -12 20 -21 20 -9 0 -16 7 -16 15 0 8 -7
15 -16 15 -9 0 -18 9 -21 20 -3 11 -11 20 -18 20 -7 0 -15 9 -18 20 -3 11 -12
20 -20 20 -8 0 -17 9 -20 20 -3 11 -12 20 -21 20 -9 0 -16 7 -16 15 0 8 -9 15
-20 15 -13 0 -20 7 -20 20 0 13 -7 20 -20 20 -13 0 -20 7 -20 20 0 11 -6 20
-14 20 -7 0 -16 9 -19 20 -3 11 -12 20 -21 20 -9 0 -16 7 -16 15 0 8 -9 15
-20 15 -13 0 -20 7 -20 20 0 13 -7 20 -20 20 -13 0 -20 7 -20 20 0 13 -7 20
-20 20 -11 0 -20 7 -20 15 0 8 -7 15 -15 15 -8 0 -15 9 -15 20 0 13 -7 20 -20
20 -13 0 -20 7 -20 20 0 16 -7 20 -34 20 -25 0 -35 5 -39 20 -3 11 -12 20 -21
20 -9 0 -16 -8 -16 -20 0 -13 -7 -20 -20 -20 -17 0 -20 -7 -20 -40 0 -29 4
-40 15 -40 8 0 15 -7 15 -15 0 -8 8 -15 19 -15 10 0 21 -9 24 -20 3 -11 12
-20 20 -20 8 0 17 -9 20 -20 3 -11 12 -20 21 -20 9 0 16 -7 16 -15 0 -8 9 -15
20 -15 17 0 20 -7 20 -40 0 -33 -3 -40 -20 -40 -13 0 -20 -7 -20 -20 0 -16 -7
-20 -32 -20 -48 0 -78 10 -78 26 0 8 -9 14 -20 14 -13 0 -20 7 -20 20 0 13 -7
20 -20 20 -11 0 -20 7 -20 15 0 8 -7 15 -16 15 -9 0 -18 9 -21 19 -3 10 -16
21 -29 24 -38 7 -124 -4 -124 -17 0 -28 14 -56 26 -56 8 0 14 -9 14 -20 0 -13
7 -20 20 -20 13 0 20 -7 20 -20 0 -13 7 -20 20 -20 11 0 20 -7 20 -15 0 -8 14
-17 35 -21 20 -3 35 -12 35 -20 0 -8 9 -14 20 -14 13 0 20 -7 20 -20 0 -11 7
-20 15 -20 8 0 15 -7 15 -15 0 -8 -7 -15 -15 -15 -8 0 -15 7 -15 15 0 10 -10
15 -34 15 -25 0 -35 5 -39 20 -3 11 -12 20 -21 20 -9 0 -16 6 -16 14 0 9 -15
17 -40 21 -25 4 -40 12 -40 21 0 8 -9 14 -20 14 -13 0 -20 7 -20 20 0 16 -7
20 -35 20 -28 0 -35 4 -35 20 0 17 -7 20 -40 20 -28 0 -40 4 -40 15 0 8 -14
17 -35 21 -20 3 -35 12 -35 20 0 9 -11 14 -29 14 -49 0 -91 12 -91 26 0 11
-17 14 -70 14 -56 0 -70 -3 -70 -15 0 -8 7 -15 16 -15 9 0 18 -9 21 -20 3 -11
12 -20 19 -20 8 0 14 -9 14 -20 0 -13 7 -20 20 -20 13 0 20 -7 20 -20 0 -11 7
-20 15 -20 8 0 15 -9 15 -20 0 -16 -7 -20 -35 -20 -28 0 -35 4 -35 20 0 16 -7
20 -34 20 -25 0 -35 5 -39 20 -4 15 -14 20 -41 20 -25 0 -36 4 -36 15 0 10
-14 17 -40 21 -24 4 -40 12 -40 20 0 8 -10 14 -24 14 -45 0 -86 13 -86 26 0
10 -13 14 -41 14 -38 0 -41 -2 -35 -22 3 -13 6 -29 6 -35 0 -7 9 -13 20 -13
13 0 20 -7 20 -19 0 -10 9 -21 20 -24 11 -3 20 -12 20 -21 0 -9 7 -16 15 -16
8 0 15 -7 15 -15 0 -8 14 -17 34 -20 22 -5 36 -14 39 -26 3 -10 12 -19 21 -19
9 0 16 -7 16 -15 0 -8 9 -15 20 -15 13 0 20 -7 20 -20 0 -13 7 -20 20 -20 13
0 20 -7 20 -20 0 -13 7 -20 20 -20 11 0 20 -7 20 -15 0 -8 14 -17 35 -21 20
-3 35 -12 35 -20 0 -8 7 -14 16 -14 9 0 18 -9 21 -20 3 -11 11 -20 18 -20 7 0
15 -9 18 -20 3 -11 12 -20 20 -20 8 0 17 -9 20 -20 3 -11 12 -20 21 -20 9 0
16 -7 16 -15 0 -8 9 -15 20 -15 13 0 20 -7 20 -20 0 -13 7 -20 20 -20 13 0 20
-7 20 -20 0 -13 7 -20 20 -20 11 0 20 -7 20 -15 0 -8 7 -15 16 -15 9 0 18 -9
21 -20 3 -11 12 -20 19 -20 8 0 14 -9 14 -20 0 -16 7 -20 35 -20 28 0 35 -4
35 -20 0 -13 7 -20 20 -20 13 0 20 -7 20 -20 0 -13 7 -20 20 -20 11 0 20 -7
20 -15 0 -8 7 -15 16 -15 9 0 18 -9 21 -20 3 -11 12 -20 20 -20 8 0 17 -9 20
-20 3 -11 11 -20 18 -20 7 0 15 -9 18 -20 3 -11 12 -20 21 -20 9 0 16 -7 16
-15 0 -8 7 -15 16 -15 9 0 18 -9 21 -20 3 -11 12 -20 20 -20 8 0 17 -9 20 -20
3 -11 11 -20 18 -20 7 0 15 -9 18 -20 3 -11 12 -20 21 -20 9 0 16 -7 16 -15 0
-8 9 -15 20 -15 13 0 20 -7 20 -20 0 -13 7 -20 20 -20 13 0 20 -7 20 -20 0
-11 6 -20 14 -20 7 0 16 -9 19 -20 3 -11 12 -20 21 -20 9 0 16 -7 16 -15 0 -8
7 -15 16 -15 9 0 18 -9 21 -20 3 -11 12 -20 20 -20 8 0 17 -9 20 -20 3 -11 12
-20 19 -20 8 0 14 -9 14 -20 0 -13 7 -20 20 -20 13 0 20 -7 20 -20 0 -13 7
-20 20 -20 16 0 20 -7 20 -35 0 -28 4 -35 20 -35 11 0 20 -7 20 -15 0 -8 7
-15 16 -15 9 0 18 -9 21 -20 3 -11 12 -20 19 -20 8 0 14 -9 14 -20 0 -13 7
-20 20 -20 13 0 20 -7 20 -20 0 -13 7 -20 20 -20 13 0 20 -7 20 -20 0 -11 6
-20 14 -20 7 0 16 -9 19 -20 3 -11 12 -20 21 -20 9 0 16 -8 16 -20 0 -13 7
-20 20 -20 16 0 20 -7 20 -35 0 -28 4 -35 20 -35 13 0 20 -7 20 -20 0 -13 7
-20 20 -20 11 0 20 -7 20 -15 0 -8 7 -15 15 -15 9 0 15 -9 15 -21 0 -12 8 -23
20 -26 14 -4 20 -14 20 -33 0 -19 6 -29 20 -33 12 -3 20 -14 20 -26 0 -12 6
-21 14 -21 7 0 16 -9 19 -20 3 -11 12 -20 21 -20 9 0 18 -13 22 -35 3 -20 12
-35 20 -35 8 0 14 -9 14 -20 0 -13 7 -20 20 -20 16 0 20 -7 20 -35 0 -28 4
-35 20 -35 13 0 20 -7 20 -20 0 -11 6 -20 14 -20 8 0 17 -15 20 -35 4 -21 13
-35 21 -35 8 0 15 -8 15 -19 0 -10 9 -21 20 -24 15 -4 20 -14 20 -41 0 -25 5
-36 15 -36 8 0 17 -14 21 -35 3 -20 12 -35 20 -35 8 0 14 -9 14 -20 0 -13 7
-20 20 -20 16 0 20 -7 20 -36 0 -27 5 -37 20 -41 15 -4 20 -14 20 -39 0 -22 5
-34 14 -34 13 0 26 -41 26 -86 0 -14 6 -24 14 -24 9 0 17 -15 21 -40 4 -25 12
-40 21 -40 9 0 14 -12 14 -35 0 -28 4 -35 20 -35 18 0 20 -7 20 -54 0 -45 3
-54 20 -59 17 -4 20 -14 20 -56 0 -38 4 -51 14 -51 10 0 17 -16 22 -45 4 -28
11 -45 20 -45 9 0 14 -11 14 -27 0 -43 11 -73 26 -73 10 0 14 -13 14 -45 0
-32 4 -45 14 -45 15 0 26 -30 26 -72 0 -17 5 -28 14 -28 13 0 26 -41 26 -86 0
-15 6 -24 15 -24 11 0 15 -11 15 -41 0 -32 4 -42 20 -46 16 -4 20 -14 20 -53
0 -39 4 -49 20 -53 17 -4 20 -14 20 -56 0 -37 4 -51 14 -51 9 0 17 -15 21 -40
4 -25 12 -40 21 -40 9 0 14 -11 14 -32 0 -48 10 -78 26 -78 9 0 14 -12 14 -32
0 -60 10 -78 41 -78 24 0 29 5 35 35 3 19 12 35 19 35 7 0 16 16 19 35 4 21
13 35 21 35 8 0 15 9 15 20 0 13 7 20 20 20 16 0 20 7 20 35 0 23 5 35 14 35
9 0 17 15 21 40 4 25 12 40 21 40 8 0 14 7 14 16 0 9 9 18 20 21 15 4 20 14
20 39 0 27 4 34 20 34 13 0 20 7 20 20 0 11 6 20 14 20 9 0 17 15 21 40 4 23
12 40 20 40 7 0 16 16 19 35 4 21 13 35 21 35 8 0 15 9 15 20 0 13 7 20 20 20
16 0 20 7 20 34 0 25 5 35 20 39 14 4 20 14 20 35 0 21 6 31 20 35 12 3 20 14
20 26 0 12 6 21 14 21 8 0 17 15 20 35 4 21 13 35 21 35 8 0 15 9 15 20 0 11
7 20 15 20 8 0 17 14 21 35 3 19 12 35 19 35 8 0 16 17 20 40 4 25 12 40 21
40 8 0 14 9 14 20 0 13 7 20 20 20 16 0 20 7 20 35 0 28 4 35 20 35 13 0 20 7
20 20 0 11 6 20 14 20 8 0 17 15 20 35 4 21 13 35 21 35 9 0 15 9 15 21 0 12
8 23 20 26 14 4 20 14 20 35 0 21 6 31 20 35 11 3 20 14 20 24 0 11 7 19 15
19 8 0 17 14 21 35 3 20 12 35 20 35 8 0 14 9 14 20 0 13 7 20 20 20 16 0 20
7 20 35 0 28 4 35 20 35 13 0 20 7 20 20 0 11 6 20 14 20 8 0 17 15 20 35 4
21 13 35 21 35 8 0 15 9 15 20 0 13 7 20 20 20 13 0 20 7 20 19 0 10 9 21 20
24 15 4 20 14 20 41 0 29 4 36 20 36 13 0 20 7 20 20 0 11 7 20 15 20 8 0 17
14 21 35 3 20 12 35 20 35 8 0 14 9 14 20 0 13 7 20 20 20 13 0 20 7 20 20 0
11 7 20 15 20 8 0 17 14 21 35 4 25 11 35 25 35 12 0 19 7 19 20 0 11 6 20 14
20 8 0 17 15 20 35 4 21 13 35 21 35 8 0 15 9 15 20 0 13 7 20 20 20 13 0 20
7 20 20 0 11 6 20 14 20 7 0 16 9 19 20 3 11 12 20 21 20 12 0 16 10 16 35 0
28 4 35 20 35 13 0 20 7 20 20 0 13 7 20 20 20 13 0 20 7 20 20 0 11 6 20 14
20 8 0 17 15 20 35 4 21 13 35 21 35 8 0 15 9 15 20 0 13 7 20 20 20 13 0 20
7 20 20 0 13 7 20 20 20 16 0 20 7 20 35 0 28 4 35 20 35 13 0 20 7 20 20 0
11 6 20 14 20 7 0 16 9 19 20 3 11 12 20 21 20 9 0 16 8 16 20 0 11 7 20 15
20 8 0 17 14 21 35 4 25 11 35 25 35 12 0 19 7 19 20 0 11 6 20 14 20 7 0 16
9 19 20 3 11 12 20 21 20 9 0 16 8 16 20 0 11 6 20 14 20 8 0 17 14 21 30 4
17 13 30 22 30 8 0 17 9 20 20 3 11 12 20 19 20 8 0 14 9 14 20 0 13 7 20 20
20 13 0 20 7 20 20 0 13 7 20 20 20 16 0 20 7 20 35 0 25 4 35 16 35 9 0 18 9
21 20 3 11 12 20 20 20 8 0 17 9 20 20 3 11 12 20 19 20 8 0 14 9 14 20 0 13
7 20 20 20 13 0 20 7 20 20 0 11 6 20 14 20 7 0 16 9 19 20 3 11 12 20 21 20
9 0 18 13 22 35 3 19 12 35 19 35 7 0 15 9 18 20 3 11 12 20 21 20 9 0 16 7
16 15 0 8 7 15 16 15 9 0 18 9 21 20 3 11 12 20 19 20 8 0 14 9 14 20 0 13 7
20 19 20 14 0 21 10 25 35 4 21 13 35 21 35 8 0 15 9 15 20 0 13 7 20 20 20
13 0 20 7 20 20 0 13 7 20 20 20 13 0 20 7 20 20 0 11 6 20 14 20 7 0 16 9 19
20 3 11 12 20 21 20 9 0 16 6 16 14 0 7 9 16 20 19 11 3 20 12 20 21 0 9 7 16
15 16 8 0 15 9 15 20 0 13 7 20 20 20 13 0 20 7 20 20 0 13 7 20 20 20 16 0
20 7 20 35 0 28 4 35 20 35 13 0 20 7 20 20 0 13 7 20 20 20 13 0 20 7 20 20
0 11 7 20 15 20 8 0 15 7 15 15 0 8 9 15 20 15 13 0 20 7 20 20 0 13 7 20 20
20 13 0 20 7 20 20 0 13 7 20 20 20 13 0 20 7 20 20 0 11 6 20 14 20 7 0 16 9
19 20 3 11 12 20 21 20 9 0 16 7 16 15 0 8 9 15 20 15 13 0 20 7 20 20 0 11 7
20 15 20 8 0 17 14 21 35 4 25 11 35 25 35 12 0 19 7 19 19 0 10 9 21 20 24
11 3 20 12 20 21 0 9 7 16 15 16 8 0 15 6 15 14 0 7 9 16 20 19 11 3 20 12 20
20 0 8 9 17 20 20 11 3 20 12 20 20 0 8 9 17 20 20 11 3 20 12 20 21 0 9 7 16
15 16 8 0 15 7 15 16 0 9 9 18 20 21 11 3 20 11 20 18 0 7 9 15 20 18 11 3 20
12 20 20 0 8 9 17 20 20 11 3 20 12 20 21 0 9 7 16 15 16 8 0 15 7 15 16 0 9
9 18 20 21 11 3 20 11 20 18 0 7 9 15 20 18 11 3 20 12 20 20 0 8 9 17 20 20
11 3 20 12 20 21 0 9 7 16 15 16 8 0 15 7 15 16 0 9 9 18 20 21 11 3 20 11 20
18 0 7 9 15 20 18 11 3 20 12 20 20 0 8 9 17 20 20 11 3 20 12 20 20 0 8 9 17
20 20 11 3 20 12 20 21 0 9 7 16 15 16 8 0 15 6 15 14 0 7 9 16 20 19 11 3 20
12 20 20 0 8 9 17 20 20 11 3 20 12 20 21 0 9 8 16 20 16 11 0 20 6 20 14 0 8
13 17 29 21 17 3 31 14 34 26 3 10 12 19 20 19 8 0 17 9 20 20 3 11 12 20 21
20 9 0 16 7 16 15 0 8 9 15 20 15 13 0 20 7 20 20 0 13 7 20 20 20 13 0 20 7
20 20 0 11 6 20 14 20 7 0 16 9 19 20 3 11 12 20 21 20 9 0 16 7 16 15 0 8 9
15 20 15 13 0 20 7 20 20 0 13 7 20 20 20 13 0 20 7 20 20 0 13 7 20 20 20 11
0 20 7 20 15 0 8 14 17 35 21 25 4 35 11 35 25 0 11 7 19 15 19 8 0 15 7 15
15 0 8 8 15 19 15 10 0 21 9 24 20 3 11 12 20 20 20 8 0 17 9 20 20 3 11 12
20 21 20 9 0 16 7 16 15 0 8 9 15 20 15 13 0 20 7 20 20 0 13 7 20 20 20 13 0
20 7 20 20 0 13 7 20 20 20 11 0 20 7 20 15 0 8 14 17 35 21 25 4 35 11 35 25
0 12 7 19 20 19 11 0 20 7 20 15 0 8 6 15 14 15 7 0 16 9 19 20 3 11 12 20 20
20 8 0 17 9 20 20 3 11 12 20 21 20 9 0 16 6 16 14 0 8 15 17 35 20 21 4 35
13 35 21 0 8 9 15 20 15 13 0 20 7 20 20 0 13 7 20 20 20 13 0 20 7 20 20 0
13 7 20 20 20 11 0 20 6 20 14 0 7 9 16 20 19 11 3 20 12 20 21 0 12 10 16 35
16 28 0 35 4 35 20 0 13 7 20 20 20 13 0 20 7 20 20 0 13 7 20 20 20 11 0 20
6 20 14 0 7 9 16 20 19 11 3 20 12 20 20 0 9 14 17 35 21 21 4 35 13 35 21 0
8 9 15 20 15 13 0 20 7 20 20 0 13 7 20 20 20 11 0 20 6 20 14 0 8 14 17 30
21 17 4 30 13 30 21 0 8 9 14 21 14 12 0 23 8 26 20 3 11 14 20 24 20 12 0 19
7 19 20 0 16 7 20 35 20 28 0 35 4 35 20 0 13 7 20 20 20 11 0 20 6 20 14 0 7
9 16 20 19 11 3 20 12 20 21 0 12 10 16 35 16 28 0 35 4 35 20 0 13 7 20 20
20 13 0 20 7 20 20 0 13 7 20 20 20 11 0 20 6 20 14 0 8 15 17 35 20 21 4 35
13 35 21 0 8 9 15 20 15 13 0 20 7 20 20 0 16 7 20 35 20 28 0 35 4 35 20 0
13 7 20 20 20 11 0 20 7 20 15 0 8 9 15 20 15 13 0 20 7 20 20 0 16 7 20 35
20 28 0 35 4 35 20 0 13 7 20 20 20 11 0 20 6 20 14 0 9 15 17 40 21 25 4 40
12 40 21 0 8 7 14 16 14 9 0 18 9 21 20 4 15 14 20 39 20 27 0 34 4 34 20 0
13 7 20 20 20 11 0 20 7 20 15 0 8 14 17 35 21 20 3 35 12 35 20 0 8 9 14 20
14 13 0 20 7 20 20 0 16 7 20 35 20 28 0 35 4 35 20 0 17 7 20 40 20 33 0 40
3 40 20 0 13 7 20 20 20 11 0 20 7 20 15 0 8 14 17 35 21 20 3 35 12 35 20 0
8 9 14 20 14 13 0 20 7 20 20 0 17 7 20 40 20 33 0 40 3 40 20 0 16 7 20 35
20 24 0 35 5 35 15 0 8 14 17 35 21 20 3 35 12 35 20 0 8 9 14 21 14 12 0 23
8 26 20 4 15 14 20 39 20 27 0 34 4 34 20 0 16 7 20 34 20 25 0 35 5 39 20 4
15 14 20 36 20 21 0 31 5 31 15 0 9 9 15 21 15 12 0 23 8 26 20 4 15 14 20 38
20 24 0 34 5 38 20 4 15 14 20 41 20 25 0 36 5 36 15 0 8 14 17 35 21 19 3 35
12 35 19 0 7 16 16 35 19 19 4 35 13 35 20 0 8 17 16 40 20 36 6 40 9 40 36 0
20 -5 30 -15 30 -13 0 -15 22 -15 135 l0 135 -60 0 c-53 0 -60 -2 -60 -20 0
-16 -7 -20 -35 -20 -23 0 -35 -5 -35 -14 0 -9 -15 -17 -40 -21 -23 -4 -40 -12
-40 -20 0 -7 -16 -16 -35 -19 -21 -4 -35 -13 -35 -21 0 -11 -12 -15 -40 -15
-33 0 -40 -3 -40 -20 0 -16 -7 -20 -34 -20 -25 0 -35 -5 -39 -20 -4 -15 -14
-20 -41 -20 -25 0 -36 -4 -36 -15 0 -12 -13 -15 -55 -15 l-55 0 0 110 0 110
-55 0 c-42 0 -55 -3 -55 -15 0 -10 -10 -15 -29 -15 -49 0 -91 -12 -91 -26 0
-9 -12 -14 -35 -14 -33 0 -35 2 -35 35 0 24 5 35 15 35 8 0 15 9 15 20 0 13 7
20 20 20 13 0 20 7 20 20 0 13 7 20 20 20 13 0 20 7 20 20 0 13 7 20 20 20 11
0 20 6 20 14 0 7 9 16 20 19 11 3 20 12 20 21 0 9 8 16 20 16 13 0 20 7 20 20
0 11 7 20 15 20 12 0 15 13 15 55 l0 55 -35 0 c-23 0 -35 5 -35 14 0 22 -54
29 -152 19z"/>
<path d="M2670 12330 c0 -1721 2 -2070 13 -2070 18 0 27 -775 27 -2372 0
-1058 2 -1198 15 -1198 13 0 15 -34 15 -242 0 -134 3 -523 7 -865 5 -510 9
-623 20 -623 11 0 13 -121 13 -689 0 -432 4 -692 10 -696 5 -3 225 -3 490 1
391 6 480 10 480 21 0 11 887 13 5355 13 4753 0 5355 2 5355 15 0 13 20 15
123 15 67 0 186 3 265 7 l142 6 0 892 c0 1006 6 1285 27 1285 11 0 13 105 13
600 0 497 -2 600 -14 600 -17 0 -26 123 -26 377 0 155 -3 193 -14 193 -23 0
-26 126 -26 1023 0 749 -2 857 -15 857 -13 0 -15 74 -17 554 -2 305 -6 557 -9
560 -3 3 -20 9 -37 12 l-32 7 0 -47 c0 -34 -4 -46 -15 -46 -10 0 -15 -10 -15
-27 0 -42 -11 -73 -25 -73 -16 0 -25 32 -25 93 0 35 -4 47 -15 47 -13 0 -15
28 -15 190 l0 190 -54 0 c-50 0 -54 -2 -61 -27 -4 -16 -6 -165 -5 -333 1 -168
2 -315 1 -327 -1 -22 -5 -23 -70 -23 l-68 0 -7 53 c-3 28 -6 78 -6 110 0 44
-3 57 -15 57 -13 0 -15 36 -15 265 0 258 -1 265 -20 265 -17 0 -20 7 -20 41 0
33 -3 40 -17 37 -13 -2 -19 -14 -21 -41 -2 -24 -8 -37 -17 -37 -13 0 -15 -58
-17 -377 -3 -351 -4 -378 -20 -381 -17 -3 -18 9 -18 146 0 200 -9 302 -26 302
-11 0 -14 25 -14 115 0 91 -3 115 -14 115 -18 0 -26 45 -26 146 0 65 -3 84
-14 84 -13 0 -26 41 -26 86 0 15 -6 24 -15 24 -10 0 -15 10 -15 33 0 47 -10
77 -26 77 -8 0 -14 9 -14 20 0 13 -7 20 -20 20 -18 0 -20 -7 -20 -55 0 -42 -3
-55 -15 -55 -8 0 -15 -7 -15 -16 0 -9 -9 -18 -20 -21 -11 -3 -20 -12 -20 -19
0 -8 -9 -14 -20 -14 -13 0 -20 -7 -20 -20 0 -13 -7 -20 -20 -20 -13 0 -20 -7
-20 -20 0 -13 -7 -20 -20 -20 -13 0 -20 -7 -20 -20 0 -11 -6 -20 -13 -20 -11
0 -15 -188 -20 -1072 -4 -590 -7 -1470 -7 -1955 0 -778 -2 -883 -15 -883 -12
0 -15 -17 -15 -90 0 -73 3 -90 15 -90 12 0 15 -17 15 -95 0 -78 -3 -95 -15
-95 -13 0 -15 -116 -15 -980 l0 -980 -3850 0 c-3205 0 -3850 -2 -3850 -13 0
-11 -178 -15 -1012 -20 -557 -4 -1023 -4 -1035 -1 -11 3 -24 16 -27 27 -3 12
-6 968 -6 2125 0 1862 -2 2102 -15 2102 -13 0 -15 199 -15 1728 0 950 -3 1841
-6 1980 -3 139 -3 273 1 298 l6 44 1958 0 c1077 0 1973 3 1990 6 17 4 31 13
31 20 0 10 15 14 54 14 45 0 54 3 59 20 4 15 14 20 41 20 25 0 36 5 36 15 0 8
14 17 35 21 20 3 35 12 35 20 0 8 9 14 20 14 13 0 20 7 20 20 0 13 7 20 20 20
13 0 20 7 20 20 0 11 7 20 15 20 10 0 15 11 15 35 0 24 -5 35 -15 35 -8 0 -15
9 -15 20 0 20 -7 20 -279 20 -270 0 -279 1 -284 20 -3 11 -12 20 -21 20 -12 0
-16 10 -16 35 0 25 4 35 16 35 9 0 18 9 21 20 4 15 14 20 38 20 24 0 34 5 38
20 4 15 14 20 42 20 29 0 36 3 33 18 -2 12 -14 18 -41 20 -24 2 -37 8 -37 18
0 10 -12 14 -44 14 -63 0 -106 11 -106 26 0 11 -18 14 -75 14 -57 0 -75 3 -75
14 0 22 -34 26 -247 26 -163 0 -203 3 -203 13 0 11 -33 15 -142 20 -79 4 -174
7 -212 7 -66 0 -68 1 -62 23 3 12 6 28 6 35 0 9 82 12 375 12 368 0 375 0 375
20 0 20 7 20 375 20 336 0 375 2 375 16 0 9 -9 18 -20 21 -15 4 -20 14 -20 39
0 32 -2 34 -36 34 -27 0 -37 5 -41 20 -5 17 -14 20 -59 20 -39 0 -54 4 -54 14
0 18 -44 26 -141 26 -64 0 -79 3 -79 15 0 11 -11 15 -43 15 -114 0 -227 13
-227 26 0 11 -39 14 -199 14 -235 0 -321 7 -321 26 0 11 -30 14 -149 14 -140
0 -149 1 -154 20 -3 11 -12 20 -21 20 -9 0 -16 8 -16 20 0 13 7 20 20 20 11 0
20 6 20 14 0 8 15 17 35 20 21 4 35 13 35 21 0 13 -258 15 -2010 15 l-2010 0
0 -2070z"/>
<path d="M6960 10135 c0 -8 7 -15 15 -15 8 0 15 7 15 15 0 8 -7 15 -15 15 -8
0 -15 -7 -15 -15z"/>
</g>
</svg>
