<?xml version="1.0" standalone="no"?>
<!DOCTYPE svg PUBLIC "-//W3C//DTD SVG 20010904//EN"
 "http://www.w3.org/TR/2001/REC-SVG-20010904/DTD/svg10.dtd">
<svg version="1.0" xmlns="http://www.w3.org/2000/svg"
 width="990.000000pt" height="480.000000pt" viewBox="0 0 990.000000 480.000000"
 preserveAspectRatio="xMidYMid meet">

<g transform="translate(0.000000,480.000000) scale(0.100000,-0.100000)"
fill="#000000" stroke="none">
<path d="M2585 4028 c-115 -21 -213 -42 -216 -46 -7 -8 18 -2803 26 -2810 5
-5 395 25 402 31 1 2 17 327 33 723 30 697 31 741 24 1432 l-7 712 -26 -1
c-14 0 -120 -19 -236 -41z"/>
<path d="M225 3748 c-2 -7 -19 -109 -38 -226 -23 -144 -30 -215 -23 -217 6 -2
119 -6 251 -10 410 -10 693 -34 895 -75 56 -11 100 -26 106 -35 46 -63 12
-598 -53 -834 l-18 -65 -60 -24 c-66 -26 -333 -96 -407 -107 l-47 -7 6 466 c6
454 6 466 -13 465 -10 0 -122 -17 -248 -37 l-230 -37 3 -170 c4 -317 31 -1669
34 -1671 1 -2 99 7 217 19 l215 22 12 269 c7 148 14 270 16 272 2 2 169 34
371 69 202 36 386 73 407 82 61 24 99 78 146 204 119 319 168 602 161 939 -4
205 -4 205 -35 270 -37 80 -145 207 -224 265 -62 46 -102 58 -284 89 -205 35
-513 66 -852 86 -232 14 -303 13 -308 -2z"/>
<path d="M7835 3709 c-272 -19 -604 -53 -715 -73 -64 -11 -65 -12 -62 -41 8
-105 32 -339 35 -340 1 -1 80 3 175 8 95 6 174 8 177 6 2 -3 8 -270 14 -594 6
-325 13 -702 17 -839 l6 -249 -171 7 c-134 5 -171 4 -171 -6 0 -7 -9 -87 -19
-178 -10 -91 -16 -168 -12 -172 8 -9 273 -43 446 -57 123 -10 534 -31 621 -31
l40 0 17 197 c8 108 14 200 12 204 -3 3 -81 8 -175 11 -94 3 -173 7 -175 9 -2
2 10 211 26 464 26 406 29 507 27 863 -3 396 -3 403 17 407 11 2 85 11 164 20
80 8 146 17 148 19 2 2 -8 88 -22 191 -14 103 -25 189 -25 191 0 7 -133 2
-395 -17z"/>
<path d="M8933 3627 l-213 -42 0 -160 c0 -345 21 -1982 26 -2013 7 -45 59
-101 119 -127 145 -65 749 -236 765 -218 7 9 101 371 100 389 0 7 -89 34 -207
63 -115 28 -242 61 -283 74 l-75 23 3 89 c13 422 34 960 38 964 2 3 118 13
257 24 138 10 253 20 255 21 5 6 -34 425 -41 432 -3 3 -112 -14 -242 -38 -129
-25 -237 -42 -240 -40 -3 3 -5 140 -5 304 l0 298 -22 -1 c-13 -1 -119 -20
-235 -42z"/>
<path d="M3420 3017 c-28 -115 -49 -212 -46 -215 5 -5 211 -34 526 -76 69 -9
166 -24 217 -33 l92 -16 3 -139 c2 -76 2 -138 2 -138 -1 0 -121 -13 -267 -30
-274 -30 -506 -71 -543 -95 -70 -45 -122 -313 -109 -555 12 -236 52 -383 112
-413 93 -48 470 -137 783 -186 175 -27 471 -63 477 -57 11 11 90 416 81 416
-30 0 -479 55 -623 76 -194 29 -365 61 -374 70 -23 22 -6 309 19 324 24 15
450 104 458 96 1 -2 5 -76 9 -165 6 -154 7 -161 27 -161 31 0 348 30 373 36
l23 4 -6 558 c-7 620 -6 612 -75 665 -85 64 -404 139 -916 215 l-192 28 -51
-209z"/>
<path d="M5345 3093 c-104 -14 -192 -27 -194 -29 -5 -5 30 -1868 35 -1873 6
-6 391 21 402 28 5 3 21 303 36 675 14 369 29 673 33 677 5 5 56 24 114 43
120 40 299 72 352 62 l34 -6 5 -750 c3 -413 7 -752 9 -754 6 -6 417 28 424 36
3 3 22 392 41 863 l35 857 -26 43 c-24 42 -107 121 -152 144 -14 7 -104 11
-270 11 l-248 0 -168 -146 c-93 -80 -171 -143 -174 -140 -4 3 -21 68 -38 144
-22 96 -35 137 -45 138 -8 1 -100 -9 -205 -23z"/>
</g>
</svg>
